name processed_emg_signals
nRows=82
nColumns=7
 
endheader
time	RGLTMED	RRF	RADDLONG	RST	RTA	RGM
0.0	0.0086105829231469	0.1002115961464248	0.0451430297451022	0.0087997490873329	0.2192397003410265	0.0190846898990919
0.001	0.0100949175579133	0.114539496158889	0.0342979801329485	0.0102799323994099	0.2387143649907444	0.0201749149158828
0.002	0.0115863614142878	0.1290429819353899	0.0233944390127158	0.0117532296461918	0.2581511339304758	0.0212679616589388
0.003	0.0130841555727938	0.1437147235537028	0.0124370090028456	0.0132183540389482	0.2775370142300271	0.0223630028463025
0.004	0.014587536038796	0.1585471268277187	0.00143028747525	0.0146740133197388	0.2968590601949291	0.0234592003028688
0.005	0.016095734755012	0.1735323380814718	0.0096211407957239	0.0161189114056922	0.316104393755	0.0245557059688736
0.006	0.0176079806081968	0.1886622493243887	0.0207127107802007	0.0175517500578197	0.3352602247109885	0.0256516629289083
0.007	0.0191235004264678	0.2039285038284776	0.0318398841003244	0.0189712305718317	0.3543138707733834	0.0267462064592121
0.008	0.0206415199638822	0.2193225021076321	0.0429981556671076	0.0203760554887833	0.3732527773311699	0.0278384650910489
0.009000000000000001	0.0221612648692458	0.2348354082988203	0.0541830600182941	0.0217649303233373	0.3920645368913232	0.0289275616881473
0.01	0.0236819616362302	0.2504581569444437	0.0653901773318961	0.0231365653076922	0.4107369081331266	0.0300126145362792
0.011	0.0252028385320806	0.2661814601743655	0.0766151390938423	0.0244896771492383	0.4292578345248941	0.0310927384430987
0.012	0.0267231265021605	0.2819958152855993	0.0878536334015204	0.025822990800183	0.4476154624551094	0.0321670458464499
0.013000000000000001	0.0282420600478717	0.2978915127169453	0.0991014098891364	0.0271352412373378	0.4657981588343697	0.033234647929267
0.014	0.0297588780756733	0.3138586444149867	0.1103542842639973	0.0284251752503803	0.4837945281280609	0.0342946557393204
0.015	0.0312728247152103	0.3298871125871952	0.1216081424459295	0.0296915532368836	0.5015934287813986	0.0353461813119815
0.016	0.0327831501046923	0.3459666388371121	0.1328589443041391	0.0309331510024977	0.5191839889988825	0.0363883387941786
0.017	0.0342891111418863	0.3620867736759205	0.1441027269892111	0.0321487615646122	0.5365556218404514	0.037420245567714
0.018000000000000002	0.035789972199182	0.3782369064042331	0.1553356078599588	0.0333371969580758	0.5536980395968468	0.0384410233700212
0.019	0.0372850058012584	0.394406275357236	0.1665537870075192	0.0344972900413817	0.5706012674070483	0.0394497994104517
0.02	0.0387734932642699	0.4105839785057003	0.1777535493814488	0.03562789630201	0.58725565608085	0.040445707480134
0.021	0.0402547252956946	0.4267589844043571	0.1889312665246365	0.0367278956595114	0.6036518940907754	0.041427889053461
0.022	0.0417280025544915	0.4429201434781913	0.2000833979262634	0.0377961942649739	0.6197810186999065	0.0423954943792492
0.023	0.0431926361717581	0.4590561996359054	0.2112064920035072	0.03883172629562	0.6356344261964447	0.0433476835596529
0.024	0.0446479482322963	0.4751558021986602	0.2222971867240057	0.0398334557431087	0.6512038812118383	0.0442836276149442
0.025	0.0460932722180503	0.4912075181311275	0.2333522098818697	0.0408003781942778	0.6664815251062141	0.045202509532317
0.026000000000000002	0.0475279534143434	0.5071998445610794	0.2443683790403409	0.0417315226029056	0.6814598834118283	0.0461035252969711
0.027	0.0489513492801429	0.523121221573109	0.2553426011541762	0.042625953051205	0.6961318723309001	0.0469858849038386
0.028	0.0503628297836423	0.5389600452615415	0.2662718718847695	0.0434827704997355	0.7104908042882162	0.0478488133484039
0.029	0.0517617777045094	0.5547046810269181	0.2771532746214411	0.044301114524451	0.7245303925411605	0.0486915515952228
0.03	0.0531475889040935	0.5703434771000434	0.2879839792228891	0.0450801650395449	0.7382447548516065	0.0495133575230213
0.031	0.0545196725650334	0.5858647782765274	0.298761240493103	0.0458191440047811	0.751628416226196	0.0503135068455859
0.032	0.0558774514013808	0.6012569398441459	0.3094823964071512	0.0465173171158984	0.7646763107347921	0.0510912940080242
0.033	0.0572203618406734	0.6165083416841282	0.320144866101835	0.0471739954767215	0.7773837824210509	0.0518460330583975
0.034	0.0585478541791663	0.631607402526445	0.3307461476468813	0.0477885372515139	0.7897465853238044	0.0525770584948971
0.035	0.0598593927116469	0.6465425943375068	0.3412838156122093	0.0483603492960176	0.8017608826320574	0.0532837260889638
0.036000000000000004	0.061154455837307	0.6613024568168735	0.3517555184466657	0.0488888887655595	0.8134232449998661	0.0539654136848101
0.037	0.0624325361429232	0.6758756119778285	0.3621589756840143	0.0493736646984166	0.8247306480501283	0.0546215219758642
0.038	0.063693140464747	0.6902507787846724	0.3724919749920707	0.0498142395726712	0.835680469098683	0.055251475258547
0.039	0.0649357899301418	0.704416787818048	0.3827523690806875	0.0502102308345649	0.8462704831326282	0.0558547221638843
0.04	0.0661600199802266	0.7183625959378213	0.3929380724850334	0.0505613123964741	0.8564988580786419	0.0564307363674097
0.041	0.0673653803745284	0.7320773009116621	0.4030470582405783	0.0508672161025489	0.8663641493981534	0.0569790172778822
0.042	0.0685514351787347	0.7455501559759474	0.4130773544671171	0.0511277331601128	0.8758652940460784	0.0574990907054538
0.043000000000000003	0.0697177627365537	0.7587705842940112	0.4230270408798202	0.0513427155349226	0.8850016038290246	0.0579905095099376
0.044	0.0708639556266738	0.7717281932749414	0.4328942452463372	0.0515120773082748	0.8937727581976745	0.0584528542299228
0.045	0.0719896206057811	0.7844127887141135	0.4426771398084941	0.051635795994115	0.9021787965070812	0.0588857336935887
0.046	0.0730943785386978	0.7968143887148041	0.4523739376872513	0.0517139138141245	0.910220109777667	0.0592887856120944
0.047	0.0741778643169116	0.8089232373487384	0.4619828892881882	0.051746538928851	0.9178974319890568	0.0596616771564892
0.048	0.0752397267669157	0.8207298180126742	0.4715022787241565	0.0517338466228371	0.9252118309383816	0.0600041055190885
0.049	0.0762796285500296	0.8322248664381473	0.4809304202705964	0.0516760804417301	0.9321646986942214	0.0603157984602565
0.05	0.0772972460555061	0.843399383312469	0.4902656548682728	0.0515735532793666	0.938757741676864	0.0605965148414576
0.051000000000000004	0.0782922692887465	0.8542446464706331	0.4995063466865678	0.0514266484128509	0.9449929703954748	0.0608460451454211
0.052000000000000005	0.0792644017565471	0.8647522226204394	0.5086508797600391	0.0512358204837068	0.950872688873008	0.0610642119840768
0.053	0.0802133603512063	0.8749139785662249	0.5176976547087316	0.0510015964231344	0.9563994837902838	0.0612508705948491
0.054	0.0811388752354267	0.8847220918997839	0.5266450855529147	0.0507245763193226	0.9615762133814924	0.0614059093256822
0.055	0.0820406897298279	0.89416906113063	0.5354915966319578	0.0504054342247178	0.9664059961144624	0.061529250109068
0.056	0.0829185602048534	0.9032477152323292	0.5442356196375021	0.0500449189011333	0.9708921991900415	0.0616208489252449
0.057	0.0837722559787837	0.911951222587734	0.5528755907713649	0.0496438545005924	0.9750384268956784	0.0616806962545279
0.058	0.0846015592234021	0.9202730993230712	0.5614099480387044	0.049203141179745	0.9788485088486312	0.0617088175187086
0.059000000000000004	0.0854062648787446	0.9282072170280404	0.5698371286873263	0.0487237556458547	0.9823264881639298	0.0617052735112184
0.06	0.0861861805781333	0.9357478098657648	0.5781555668039965	0.0482067516321744	0.9854766095810432	0.0616701608156872
0.061	0.0869411265846236	0.9428894810808308	0.5863636910788436	0.0476532603006232	0.9883033075809536	0.0616036122123389
0.062	0.0876709357397248	0.9496272089165164	0.5944599227485918	0.0470644905695889	0.990811194522756	0.0615057970715652
0.063	0.0883754534251682	0.9559563519535184	0.6024426737289221	0.0464417293647344	0.993005048826416	0.0613769217338458
0.064	0.0890545375382169	0.9618726538836468	0.6103103449450346	0.0457863417907297	0.9948898032266704	0.0612172298750867
0.065	0.0897080584809725	0.9673722477323436	0.6180613248680235	0.0450997712219671	0.9964705331220024	0.0610270028563099
0.066	0.0903358991638539	0.972451659543716	0.6256939882624258	0.0443835393102842	0.9977524450421836	0.0608065600565118
0.067	0.0909379550233995	0.9771078115408032	0.6332066951496551	0.0436392459080246	0.9987408652571396	0.0605562591874505
0.068	0.0915141340543967	0.9813380247722912	0.6405977899902998	0.0428685689046088	0.999441228549226	0.0602764965890538
0.069	0.0920643568563063	0.985140021255061	0.647865601088225	0.0420732639750491	0.999859067169786	0.0599677075041229
0.07	0.0925885566939416	0.9885119256195232	0.6550084402184296	0.0412551642386511	1.0	0.0596303663309806
0.07100000000000001	0.0930866795723698	0.9914522662622433	0.6620246024800612	0.0404161798262259	0.9998697219355972	0.0592649868526944
0.07200000000000001	0.0935586843259195	0.993959976007722	0.6689123663758045	0.0395582973541222	0.9994739935151564	0.0588721224414995
0.073	0.094004542721277	0.996034392278944	0.6756699941187551	0.0386835793033796	0.9988186308124388	0.0584523662370323
0.074	0.0944242395744777	0.997675256774371	0.6822957321682049	0.0377941633023408	0.9979094956137352	0.0580063512970586
0.075	0.094817772881483	0.9988827146481	0.688787811995572	0.0368922613109267	0.9967524859015904	0.057534750719376
0.076	0.0951851539619533	0.999657313189634	0.6951444510809177	0.035980158704872	0.9953535266657968	0.0570382777336407
0.077	0.0955264076155695	1.0	0.7013638541392784	0.0350602132581198	0.9937185610613628	0.0565176857618528
0.078	0.0958415722900513	0.9999121206623032	0.7074442145746028	0.0341348540215834	0.991853541931147	0.0559737684462054
0.079	0.0961307002598716	0.9993954159068976	0.71338371615738	0.0332065800966212	0.9897644237086768	0.0554073596429766
0.08	0.0963938578143344	0.998452018274584	0.7191805349211712	0.0322779593015122	0.9874571547145748	0.0548193333811077
0.081	0.0966311254537333	0.9970844482841028	0.724832841272492	0.0313516267294448	0.9849376698586946	0.0542106037841853
